<?xml version="1.0" encoding="UTF-8"?><svg id="Layer_2" xmlns="http://www.w3.org/2000/svg" viewBox="0 0 682.39 160.81"><defs><style>.cls-1{font-family:LustStencil-DisplayItalic, 'Lust Stencil';font-size:72px;font-style:italic;}.cls-2{fill:none;stroke:#000;stroke-miterlimit:10;}</style></defs><g id="Layer_1-2"><path id="Train" d="M201.57,89.69c-.05,2.31-1.86,1.74-3.04,2.04-.42,.11-.97-.37-1.41-.57-.19,1.13-.88,1.41-4.74,1.7l-.75-3.7q.32,3.93-3.67,4.77c-.66,.14-1.33,.36-2.01,.39-.79,.04-2.28,0-2.29-.14-.15-1.23-.11-2.49,.03-3.73,.05-.45,.54-.84,.69-1.33-2.06,.9-2.27,1.68-1.73,5.79-1.69,.34-3.38,.69-5.2,1.06-.49-2.08-.28-4.65-3.13-5.28-.33-.08-.76,.36-.93,.46,1.24,.96,2.33,1.78,3.35,2.56-.48,1.52-.48,3.07-2.51,3.09-1.34,0-2.7,.32-4.02,.32-1.1,.43-2.21,.87-3.59,1.4-.04-2.13-.97-2.5-2.62-1.77,.09,.63,.19,1.24,.29,1.93-2.79,.57-5.52,1.13-8.06,1.64-.41-2.01-.68-4.05-1.26-5.98-.73-2.45-2.11-3.59-3.5-3.3s-2.18,1.83-1.88,4.42c.21,1.97,.76,3.91,1.18,6-.59,.16-1.17,.3-2.03,.52-.31-1.21-.54-2.34-.89-3.44-.55-1.79-1-3.65-1.87-5.27-.43-.79-1.87-1.56-2.68-1.42-.79,.14-1.94,1.48-1.94,2.28,0,2.47,.44,4.93,.77,7.38,.07,.53,.37,1.01,.6,1.61l-6.11,1.25c.3-2.82,.6-5.69,.93-8.79l-2.17,.44c-.14,1.77-.18,3.45-.45,5.09-.31,1.78-1.33,3.12-3.22,3.52-1.94,.42-3.5-.35-4.54-1.94-.74-1.15-1.31-2.43-1.74-3.72-.41-1.21-1-1.41-2.53-.61,1.19,2.65,2.39,5.27,3.61,7.95-2.43,.5-5.18,1.06-7.96,1.62,.47-2.94,.96-5.97,1.43-8.98-1.68-.43-1.97,.21-2.11,1.46-.24,1.91-.48,3.91-1.24,5.63-1.62,3.64-5.71,4.14-8.22,1.05-1.2-1.47-2.04-3.25-3.01-4.83q-.66,2.12,2.79,7.82c-1.77,.36-3.5,.71-5.28,1.08,.19-2.03,.38-4.08,.56-6.16-1.21-.28-1.8,0-1.94,1.15-.11,.99-.31,1.99-.57,2.94-.54,1.89-1.63,3.18-3.77,3.38-2.05,.19-3.52-.64-4.65-2.25-.5-.71-.82-1.55-1.33-2.51-.97,.26-1.96,.55-3.35,.93,1,1.74,1.9,3.34,2.84,5.01l-3.94,.8c-.02-1.42,.05-2.84-.07-4.23-.04-.41-.52-.79-.8-1.18-.23,.42-.57,.81-.64,1.26-.1,.54,.04,1.12,.05,1.68,.12,2.95-.14,3.21-3.75,3.38,.26-1.37,.46-2.65,.8-3.89,.34-1.28,.84-2.54,1.47-4.3l3.48-.71c1.41-.29,2.55-1.02,2.67-2.51,.17-1.96,.02-3.98-1.6-5.37-1.19-.99-3.66,.12-3.87,1.94-.23,1.76,.17,3.61,.3,5.67l-1.99,.41c.17-2.13,.3-4.08,.47-6.02,.17-1.96,.39-3.91,.56-5.64,1.04-.21,2.75-.06,3.29-.78,.99-1.31,1.25-3.1-.4-4.54-.36-.3-.27-1.12-.41-1.78-.6-.05-1.27-.08-2.33-.15,.45-1.81,.67-3.57,1.37-5.09,.35-.76,1.55-1.43,2.48-1.57,9.83-1.65,19.71-2.7,29.73-2.2,6.13,.3,12.25,.43,18.38,.64,.17,0,.32-.09,.52-.42-2.11-.91-4.4-.65-6.61-.83-2.43-.2-4.87-.28-7.32-.37-2.38-.1-4.74-.16-7.14-.22-2.38-.06-4.76-.14-7.13-.05-2.43,.08-4.86,.36-7.3,.53-2.31,.16-4.65,.28-6.97,0,13.91-3.53,27.95-1.67,41.96-.92,.04-.2,.11-.4,.15-.6-.6-.17-1.16-.47-1.78-.52-7.74-.39-15.51-.81-23.24-1.07-6.47-.23-12.9,.04-19.22,1.7-1.73,.46-3.42,1.08-5.39,1.69,.78-2.11,1.5-4.03,2.43-6.56,15.16,.67,30.85,1.36,46.56,2.05,.01-.15,.02-.3,.04-.43-.77-.07-1.52-.17-2.28-.22-14.61-1.06-29.22-2.09-43.82-3.17-.72-.06-2.05-.69-2.03-.92,.15-1.31,1.21-1.54,2.38-1.45,2.53,.22,5.09,.43,7.62,.64,0-4.08-.68-5.3-2.88-5.19,.12,.81,.3,1.59,.34,2.4,0,.25-.33,.53-.51,.79-.21-.19-.6-.36-.61-.54,0-3.58-2.75-3.31-5.08-3.67-2.06-.33-4.12-.73-6.16-1.09,.03-.26,.07-.49,.1-.75,7.66,.74,15.32,1.44,22.97,2.22,7.63,.77,15.25,1.62,22.87,2.45,.06-.22,.14-.45,.2-.67-.62-.19-1.25-.48-1.91-.55-11.49-1.42-22.99-2.82-34.48-4.26-2.45-.3-4.85-.79-7.28-1.19,.03-.17,.04-.32,.07-.49,2.14,.15,4.29,.32,6.95,.51-1.02-1.32-1.77-2.32-2.71-3.55,1.77,.29,2.32,1.54,3.12,2.57,.51,.65,1.32,1.05,2.01,1.56,.17-.18,.32-.36,.5-.54-.46-.6-.92-1.21-1.37-1.81,.1-.13,.18-.25,.28-.39,.58,.49,1.37,.87,1.73,1.49,.62,1.07,1.49,1.33,2.6,1.46,4.97,.56,9.93,1.2,15.49,1.86-1-1.32-1.73-2.31-2.45-3.27,.14-.13,.28-.27,.42-.4,.78,.87,1.56,1.78,2.39,2.61,.63,.6,1.34,1.13,2.02,1.68,.17-.18,.37-.35,.54-.53-.44-.64-.91-1.3-1.36-1.94,.1-.13,.18-.23,.28-.35,.61,.52,1.16,1.08,1.8,1.54,.76,.54,1.53,1.24,2.4,1.39,2.76,.48,5.53,.75,8.37,1.12-.07-2.79-1.08-4.8-3.59-5.82-2.19-.89-4.36-1.98-6.66-2.47-16.84-3.64-33.69-7.15-50.54-10.69-.35-.08-.71-.11-1.51-.22,3.33,2.98,5.84,6.05,7.34,9.8,3.31,8.22,3.59,16.26-1.89,23.74-6.62,9.01-18.98,10.99-27.87,4.52-3.91-2.84-6.21-6.85-7.52-11.4-1.21-4.17-1.83-8.44-1.25-12.8,1.05-8.1,6.82-14.99,14.69-17.02,2.13-.54,4.47-.24,6.72-.3,.48-.01,.97,.03,1.69,.05-.12-.98-.2-1.82-.34-2.67-.39-2.54-.84-5.06-1.18-7.61-.35-2.75,.01-3.43,2.57-4.44,3.55-1.39,7.21-2.1,11.04-1.71,2.99,.31,3.61,.85,4.35,3.69,1.33,5.09,2.64,10.18,3.98,15.28,.56,2.13,2.14,2.49,3.86,1.05,.54-.44,1.53-.61,2.26-.5,2.03,.32,4.05,.76,6.05,1.32,.73,.21,1.74,.71,1.92,1.3,.54,1.71,1.87,1.86,3.21,2.11,2.18,.41,4.28,1.26,6.63,.72,.96-.22,2.29,.26,3.17,.86,2.01,1.35,3.9,1.88,6.4,1.31,1.7-.39,3.72-.15,5.08,1.62,.34,.43,1.47,.56,2.11,.39,2.1-.58,4.12-1.55,6.25-2.01,1.98-.43,4.14-.84,6.09-.49,7.07,1.3,14.07,2.92,21.12,4.46,.33,.08,.64,.29,.97,.43,0,.21,.02,.41,.02,.62-.8,.1-1.61,.41-2.37,.27-5.11-.97-10.19-2.02-15.29-3.05-.61-.13-1.22-.21-1.8-.32,2.09,10.23,4.14,20.4,6.25,30.53,.25,1.21-.1,1.78-1.3,1.94-.49,.08-.93,.25-1.25,.34-.12,1.45,.21,3.16-.49,3.95-.68,.79-2.42,.64-3.69,.9-.07,.18-.12,.36-.18,.56,.58,.26,1.21,.8,1.74,.73,1.45-.19,3.22,.2,4.03-1.7,.12-.25,.77-.32,1.2-.37,4.74-.49,9.47-.99,14.23-1.35,1.67-.13,3.39,.21,5.08,.26,.59,.03,1.18-.16,1.87-.28-.22-.25-.3-.42-.36-.43-5.48,.11-10.98,.25-16.47,.39-1.38,.03-2.77,.06-4.12,.23-1.23,.15-1.79-.24-1.62-1.8,5.6-.33,11.27-.67,17.14-1.03-.12-.77-.21-1.42-.34-2.07-1.37-6.69-2.71-13.38-4.1-20.07-.2-.98-.08-1.51,.83-2.28,.79-.66,.79-2.3,1.27-3.94,2.23-.56,5.04-.32,7.87,.19,4.98,.91,9.12,3.37,12.78,6.75,1.09,1.01,2,1.27,3.46,.57,3.96-1.92,8.14-2.67,12.58-2.13,4.16,.49,8.45,.28,12.51,1.21,3.67,.84,7.33,.97,11,1.5,6.06,.88,12.05,2.12,18.07,3.24,.63,.12,1.19,.49,1.71,1.2-.87,.05-1.76,.09-3.09,.15,.7,3.44,1.29,6.75,2.13,10.01,.13,.56,1.21,.88,1.83,1.3,.16-.12,.31-.23,.47-.37-.07-1.16-.16-2.31-.23-3.47,.2-.02,.41-.06,.61-.08l1.02,4.98c-1.07,.18-.3,2.93-2.45,1.71-.21-.12-.84,.72-1.34,.82-4.33,.93-8.65,1.81-12.99,2.69-5.36,1.09-10.71,2.19-16.07,3.3-.82,.1-1.7,.37-1.75-1.21ZM37.46,67.58c.35,1.12,.79,2.75,1.38,4.32,2.79,7.4,8.75,11.42,16.67,11.25,6.9-.15,13.22-4.66,15.16-11.46,3.14-10.98,.44-18.95-6.96-25.58-6.76-6.03-17.34-4.87-22.77,2.35-4.23,5.61-4.72,11.95-3.48,19.13Zm148.18,16.51c0,.1-.02,.23-.01,.34-.66,.14-1.33,.33-2.01,.41-6.54,.64-13.09,1.27-19.63,1.96-.53,.05-1.02,.54-1.52,.83,.55,.14,1.1,.45,1.63,.38,8.09-.88,16.19-1.78,24.27-2.69,.74-.09,1.45-.3,2.17-.44-.01-.16-.03-.35-.06-.51-.57-.13-1.12-.27-1.76-.44-.3-1.15-.61-2.37-.94-3.58-8.3,.33-16.45,1.33-24.66,.89,.59-.6,1.24-.99,1.91-1.08,1.55-.19,3.11-.26,4.68-.33,5.86-.3,11.73-.57,17.78-.85-.37-1.81-.68-3.44-1.04-5.08-.97-4.55-.98-4.61-5.6-4.86-2.28-.12-4.2-.67-5.83-2.43-3.35-3.61-7.45-5.76-12.52-5.96-1.9-.07-3.77-.53-5.67-.81-.42,1.74,.21,2.26,1.62,2.41,3.29,.35,6.59,.79,9.86,1.25,.67,.09,1.32,.4,1.98,.6-.02,.19-.07,.39-.09,.58-4.36-.22-8.74-.46-13.26-.68,.05,.85-.01,1.49,.13,2.07,1.37,5.98,2.79,11.94,4.14,17.95,.28,1.28,.74,1.69,2.15,1.59,7.43-.6,14.86-1.02,22.27-1.51Zm7.3-4.73c5.43-.25,10.56-.46,15.7-.69,.03,.23,.03,.43,.05,.66-5.04,.44-10.09,.89-15.24,1.33l.58,2.85c5.4-.5,10.72-1,16.02-1.49,.08,.28,.13,.56,.21,.84-.59,.2-1.15,.53-1.74,.61-4.03,.55-8.08,1.02-12.11,1.57-.49,.06-.94,.44-1.41,.69,.08,.19,.15,.41,.23,.6,.66-.03,1.33-.02,2.01-.12,3.85-.49,7.69-1.07,11.55-1.46,1.68-.18,2.1-.87,1.76-2.43-.95-4.22-1.85-8.43-2.71-12.67-.25-1.21-.83-1.61-2.02-1.7-4.18-.3-8.35-.7-12.53-1.02-.96-.08-1.91,.06-2.85,.08,.84,4.22,1.65,8.2,2.5,12.36Zm-100.25,25.5c2.47-.5,5.03-.98,7.57-1.57,1.38-.32,2.04-1.4,2.18-2.75,.55-4.47,.04-8.71-2.44-12.58-.25-.39-.66-.99-1.02-.99-3.08-.04-6.14,.04-8.88,.08,.89,6.01,1.71,11.66,2.59,17.8Zm-18.97-61.97c.26-.05,.5-.12,.76-.18-1.3-4.84-2.55-9.71-3.95-14.53-.14-.49-1.26-1.04-1.9-1.01-2.55,.1-5.11,.41-7.65,.64-1.72,.16-2.42,1.14-2.19,2.81,.43,2.91,.87,5.81,1.4,8.69,.07,.45,.54,1.08,.93,1.17,3.15,.68,6.34,1.24,9.74,1.88-.5-2.45-.97-4.64-1.39-6.83-.4-2.18-1.08-4.36-.39-6.64,2.62,4.32,3.18,9.31,4.66,13.99Zm147.36,38.4c0,.19,0,.38-.03,.57-2.9,1.07-6.2,.7-9.03,1.99l.13,.64,9.56-1.95c-.93-4.54-1.89-9.24-2.87-14.06-3.46-.15-6.8-.31-10.16-.44,.39,1.91,.7,3.62,1.1,5.3,.42,1.76,.39,4.17,1.51,5.03s3.45,.18,5.24,.16c1.09-.01,2.18,0,3.25,0,0,.17-.01,.34-.02,.51-2.78,.23-5.53,.48-8.33,.72-.15,1.81,.43,2.4,2.14,2.05,1.83-.37,3.72-.53,5.57-.72,.68-.05,1.32,.11,1.94,.19Zm-104.43-12.32c-.22,.05-.44,.11-.68,.16-.24-.56-.64-1.08-.69-1.64-.14-2.04-1.25-2.65-3.17-2.72-2.55-.09-5.1-.49-7.65-.76-2.1-.22-4.19-.44-6.31-.66q.25,5.03,4.85,5.39c.25,.01,.49,.07,.75,.08,5.08,.41,10.17,.81,15.28,1.23-.14-4.09-.57-4.76-2.74-4.59,.11,1.17,.23,2.34,.36,3.51Zm105.39,9.04c2.06-.04,3.98-.08,5.9-.12,.01,.16,0,.35,.02,.52-1.89,.2-3.77,.39-5.72,.6l.32,1.59c2.15-.21,4.23-.4,6.3-.6,.03,.25,.06,.49,.08,.72-2.03,.41-4.06,.83-6.09,1.24l.11,.56,7.27-1.48c-.73-3.56-1.44-7.16-2.24-10.76-.08-.38-.56-.89-.92-.94-2.26-.4-4.53-.67-7.01-1.02,.68,3.42,1.3,6.45,1.96,9.69Zm-103.99,11.56c-1.05-1.94-1.85-3.93-3.09-5.61-3.51-4.68-9.02-4.23-12.02,.78-.97,1.62-1.26,3.06,0,4.02,.97-1.18,1.91-2.42,2.98-3.56,2.13-2.28,4.78-2.31,6.86,0,.95,1.06,1.75,2.3,2.36,3.58,.57,1.24,1.2,1.68,2.9,.79Zm1.46-24.01c.3,1.47,.44,2.59,.78,3.63,.13,.41,.68,.95,1.08,.99,2.78,.29,5.56,.48,8.62,.73-.27-1.33-.42-2.45-.76-3.51-.13-.41-.66-.97-1.05-1.02-2.78-.31-5.57-.54-8.69-.82Zm3.95,23.85c.09-.88,.11-1.63,.23-2.35,.55-3.04,3.7-4.92,6.37-3.44,1.37,.79,2.38,2.42,3.24,3.88,.57,.95,.95,1.29,1.94,.8-1.67-5.92-5.17-7.67-8.82-7.34-3.14,.29-5.15,4.17-4.71,8.6,.56-.03,1.13-.08,1.75-.15Zm-4.24,2.39c-5.02,.54-9.87,1.05-14.79,1.57l.51,2.51c4.07-.56,8.01-1.17,11.96-1.6,1.5-.16,2.25-.75,2.32-2.48Zm-13.62,7.51c4.7-.96,9.42-1.92,14.16-2.89,.06-.14,.13-.3,.18-.44-.7-.25-1.44-.79-2.07-.71-3.84,.57-7.66,1.31-11.49,1.93-1.32,.21-1.53,.79-.78,2.11Zm24.58-39.19l1.16,5.69c1.17-.91,2.59-1.47,2.66-2.15,.13-1.41-.46-2.88-.77-4.4-1.17,.32-2.12,.6-3.04,.87Zm-9.37,31.52c2.95,3.06,5.86,.71,8.55,.77,.4,0,.84-.82,1.25-1.26-.12-.16-.21-.31-.33-.48-2.99,.3-5.99,.61-9.47,.97Zm1.48,4.59c2.91-.59,5.75-1.17,8.6-1.75,.02-.19,.03-.38,.05-.56-1.9-.8-3.94,.07-5.86,.3-1.06,.13-2.88-.35-2.79,2.01Zm-1.54-3.64l-.6,.12c-.74,1.22-.55,2.23,1.22,2.89l-.62-3.01Zm12.07,1.3l-.71-3.46c-1.21,2.05-1.14,2.43,.71,3.46Zm24.29-3.1c.66,.89,1.14,1.71,1.26,1.65,.68-.26,1.29-.77,1.91-1.19-.08-.19-.16-.39-.24-.58-.74,.05-1.49,.07-2.93,.12Zm-19.98,2.59c-.12-.29-.22-.58-.35-.87-.98,.51-2.49-.22-3.2,1.87,1.41-.39,2.47-.69,3.54-1Zm-99.76,31.05c1.94,.27,2.64-.48,2.93-2.27,.95-5.8,2.14-11.57,3.13-17.36,.25-1.45,.84-2.22,2.56-2.34-1.18,7.04-2.34,13.97-3.51,20.95,2.14,.13,3.12-.51,3.4-2.7,.79-5.96,1.93-11.86,2.83-17.8,.23-1.55,.89-2.19,2.58-2.01-1.19,7.19-2.37,14.32-3.57,21.49,3.28-.33,3.26-.33,3.75-3.17,.99-5.94,2.04-11.84,2.94-17.78,.27-1.83,1.18-2.21,2.94-1.98-1.09,7.25-2.18,14.42-3.31,21.73l2.99-.61c.89-6.4,1.79-12.77,2.67-19.13,.36-2.63,.57-2.75,3.33-2.12-.89,6.8-1.79,13.59-2.69,20.45,1.92,.07,2.96-.27,3.16-2.45,.47-5.1,1.29-10.18,1.97-15.26,.14-1.03,.29-2.07,.45-3.15,.92,.02,1.64,.04,2.48,.06-.87,6.71-1.7,13.2-2.54,19.67,2.1,.22,2.74-.64,2.92-2.52,.49-5.29,1.19-10.58,1.81-15.85,.17-1.42,.2-1.4,1.85-.98-.68,6.12-1.35,12.27-2.01,18.43q2.32-.1,2.54-2.13c.33-3.12,.61-6.24,.94-9.34,.24-2.41,.52-4.82,.79-7.32,.78,.05,1.38,.1,2.06,.14-.57,6.04-1.12,11.86-1.68,17.8l1.77-.36c.58-5.46,1.12-10.82,1.73-16.15,.05-.47,.55-.89,.84-1.32,.19,.44,.58,.91,.56,1.33-.31,5.27-.67,10.54-1.02,15.8,1.53,.11,2.09-.74,2.18-2.43,.26-4.87,.71-9.73,1.08-14.6,.18-2.4,.06-2.59-2.33-2.62-3.38-.06-6.75-.05-10.33-.07,.91-5.81,1.79-11.52,2.77-17.81-7.55,7.32-15.58,10.92-25.67,6.72-1.37,4.67-2.67,9.15-4.07,13.97,1.03-.29,1.66-.57,2.32-.64,2.85-.27,4.43-1.57,4.18-4.64-.05-.43,.38-1.23,.7-1.29,2.9-.67,5.81-1.25,8.85-1.87,.17,2.14,.31,4,.46,5.93-1.77,.24-3.45,.22-4.96,.7-5.66,1.8-11.26,3.78-16.88,5.68-2.49,.84-4.08,2.05-4.56,5.05-.81,5.04-2.38,9.99-3.56,14.98-.22,.97-.13,2.02-.18,3.01,.25,.08,.51,.15,.76,.22,.31-.65,.73-1.26,.91-1.92,1.44-5.65,2.8-11.31,4.26-16.94,.17-.62,.77-1.14,1.18-1.71,.17,.11,.34,.22,.51,.36-1.23,6.36-2.46,12.74-3.72,19.2,1.6,.07,2.38-.32,2.68-1.95,1-5.67,2.24-11.3,3.25-16.97,.26-1.48,.88-2.23,2.61-2.39-1.33,6.82-2.68,13.54-4.02,20.3ZM54.22,19.33c.31-.75,.59-1.5,.85-2.29,1.63-4.96,4.69-8.7,9.38-10.95,7.05-3.39,14.46-4.12,21.64-.92,4.93,2.2,9.69,5.03,14.01,8.27,9.1,6.76,19.19,10.98,30.23,13.1,2.92,.58,5.94,.71,8.9,1.05,.03-.17,.05-.37,.08-.54-.58-.17-1.16-.37-1.76-.5-14.88-3.6-28.82-9.04-40.77-19.09C87.31-.5,76.41-1.94,64.87,2.42c-6.43,2.42-11.04,6.63-11.76,13.95-.1,1.05,.21,2.13,.35,3.55,.58-.45,.71-.5,.76-.59Zm28.46,48.37c-4.45,4.86-8.35,9.97-8.52,17-.03,1.68-.43,3.35-.63,5.02-.15,1.33-.23,2.68-.34,4.17,3.3,.27,6.36,.5,9.53,.75,.28-3.05,.44-5.86,.81-8.64,.88-6.44,.27-13.11,2.76-19.31-1.68-.43-2.41-.3-3.6,1.01Zm68.11-33.97c-1.07-.2-2.13-.47-3.22-.6-8.39-1.01-16.79-1.89-25.16-3.01-12.35-1.64-24.82-2.89-35.72-9.83-.53-.33-1.14-.48-1.75-.69-2.5-.87-5.01-1.09-7.54-.14-1.07,.41-2.18,.91-2.28,2.45,.49,.03,.87,.16,1.19,.07,4.5-1.13,8.48,.24,12.41,2.34,4.87,2.63,10.06,4.5,15.51,5.54,13.79,2.67,27.76,3.75,41.78,4.36,1.58,.07,3.16-.02,4.74-.03,.01-.15,.02-.32,.05-.49ZM43.04,82.7c-2.22-1.35-4.87-.6-5.52,1.88-1.15,4.4-2.08,8.86-3.06,13.33-.29,1.36-.36,2.77-.56,4.45,2.42-1.04,4.49-1.88,6.52-2.84,.42-.19,.78-.79,.91-1.27,1.27-4.63,2.5-9.28,3.93-14.57-.62-.27-1.49-.53-2.23-.97Zm30.3-5.16c3.77-4.7,8.52-8.79,7.17-15.82-.91-4.77-2.12-9.26-6.29-12.38,4.07,9.59,4.68,18.95-.88,28.2Zm76.75-8.88c-3.26-.4-6.22-.74-9.15-1.17-.39-.05-.89-.57-.99-.97-.55-2.27-.98-4.59-1.55-7.41,2.6,.45,4.78,.76,6.95,1.22,3.72,.79,3.73,.83,4.32,4.66,.18,1.07,.27,2.16,.43,3.66Zm-9.91-7.96c.38,1.87,.58,3.17,.94,4.41,.1,.4,.55,.95,.92,1.01,2.17,.37,4.36,.64,6.81,.95-.32-1.57-.49-2.72-.81-3.87-.14-.47-.53-1.15-.9-1.24-2.21-.47-4.41-.82-6.95-1.26Zm5.01,33.45c-.21-.42-.82-.65-1.24-.96-.29,.44-.84,.92-.78,1.31,.36,2.48,.82,4.96,1.36,7.4,.06,.3,.88,.64,1.29,.57,.4-.08,.96-.62,1.01-1,.1-1.17-.02-2.34-.06-3.69-.5-1.13-.95-2.42-1.58-3.63Zm9.77,5.6c-.3-2.2-.87-4.36-1.47-6.5-.13-.41-.8-.65-1.23-.98-.3,.5-.78,.98-.85,1.49-.3,2.55,.22,4.96,1.77,7.65,.71-.61,1.85-1.21,1.77-1.66Zm-104.39-4.56c2.07-.42,4.13-.78,6.16-1.3,.46-.11,.76-.8,1.13-1.23-.13-.12-.24-.26-.37-.38-2.17,.44-4.37,.85-6.52,1.37-.36,.09-.59,.79-.86,1.2,.17,.11,.32,.23,.47,.34Zm34.6,7.02c.06,1.52,.42,2.87,2.54,3.75-1.39-2.4-2.8-4.37-.54-6.52-1.64,.25-2.07,1.34-2.01,2.77Zm.76-12.4c-1.21-.49-1.8,.12-2.15,1.05-.55,1.43,.1,2.74,1.9,3.44-1.71-2.2-1.68-2.59,.26-4.49Zm-38.41-13.36c.77,.68,1.44,1.53,2.34,2.01,4.14,2.25,9.91,1.47,13.69-1.85,5.72-5.08,6.25-11.51,4.55-18.42-1.25-5.1-4.75-8.09-9.62-9.59-.76-.24-1.61-.21-2.41-.3-.16,.16-.33,.34-.48,.5,6.37,4.04,8.15,9.89,6.69,16.69-1.62,7.65-7.73,9.61-14.56,10.38-.06,.2-.13,.38-.19,.58Zm6.28-6.45c-4.15,.87-8.11-1.71-9.03-5.9-.91-4.27,1.69-8.42,5.83-9.27,4.04-.82,8.14,1.94,9,6.05,.87,4.17-1.72,8.26-5.8,9.11Zm3.46-9.41c-.7-3.44-3.08-5.06-6.39-4.37-3.41,.72-5.58,4.05-4.85,7.5,.67,3.19,3.37,5.25,6.15,4.69,3.41-.72,5.81-4.37,5.1-7.82Zm-14.69-8.2c-.23,.61-.77,1.33-.61,1.82,.17,.53,.97,.87,1.52,1.28,.34-.57,.98-1.16,.95-1.72-.02-.52-.75-1-1.19-1.52-.22,.07-.44,.09-.66,.14Zm1.85,20.15c.21-.63,.73-1.36,.54-1.85-.19-.53-1-.82-1.54-1.21-.32,.59-.95,1.2-.9,1.75,.04,.51,.78,.97,1.22,1.47,.24-.07,.46-.11,.68-.16Zm-3.47-11.97c-.49,.18-1.07,1.14-.97,1.62s1.01,1.13,1.52,1.09c.45-.03,.87-.89,1.65-1.76-1.06-.49-1.77-1.1-2.2-.95Zm8.1-12.91c-.46,.11-1.08,1.08-1,1.58,.08,.49,.93,1.19,1.43,1.17,.48-.01,.92-.82,1.74-1.63-1.02-.57-1.7-1.24-2.18-1.13Zm146.13,25.84l-1-4.92c-.65-.01-1.26-.02-1.99-.03,.73,5.52,.82,5.78,3,4.95Zm3.02-.09c-.05-3.82-.46-4.7-2.28-4.51,.06,4.28,.43,5,2.28,4.51Zm3-.28c-.27-1.35-.56-2.73-.87-4.24-.5,.02-1.02,.04-1.54,.06,.15,4.24,.46,4.82,2.4,4.18Zm.37-4.24c-.06,3.38,.42,4.43,2.41,4.45-1.1-1.51,.22-3.85-2.41-4.45Zm4.92,4.02c.07,.24,.33,.5,.59,.61,.14,.06,.51-.08,.6-.25,.48-.71-.69-3.4-1.91-3.82,.27,1.33,.47,2.39,.73,3.45Zm-1.08,.54c-.2-1.49,.27-3.19-1.42-4.17,.26,1.47-.42,3.29,1.42,4.17Zm-106.28,18.51c-.14,1.97-.26,3.95-.44,5.93-.23,2.45-2.79,2.45-4.34,3.65,2.46,1.3,5.77,.27,6.31-1.91,.69-2.69-.19-5.21-1.05-7.7-.14,0-.31,.02-.47,.03Zm112.96-18.68c-.67-1.33-.06-3.06-2.06-4.14,.23,3.57,.47,4.05,2.06,4.14Zm1.58-.03c-.28-1.28,.02-2.77-1.22-3.71-.22,.07-.43,.15-.63,.21,.36,1.25,.74,2.49,1.1,3.75,.23-.09,.49-.16,.74-.26Zm12.41-2.45c.68,1.05-.24,3.13,2.21,2.61l-.55-2.69c-.56,.03-.99,.06-1.66,.09Zm-3.47,2.57c-.32-1.15-.66-2.29-.97-3.44-.18,.06-.33,.11-.51,.15l.72,3.52c.26-.05,.52-.13,.77-.22Zm1.51-.08c-.3-1.07-.63-2.15-.93-3.22-.26,.07-.51,.15-.75,.24,.29,1.09,.59,2.18,.87,3.25,.27-.1,.55-.18,.8-.27ZM48.6,60.64c.57-1.92,2.42-2.8,4.74-3.23-2.9-.46-5.03,.59-6.07,2.75-.94,1.97-.46,4.43,.98,5.74,.09-1.69-.15-3.59,.35-5.26Z"/><path id="curve" class="cls-2" d="M.17,146.74c74.9-27.04,192.75-59.65,340-60.42,148.02-.78,266.74,30.92,342.06,57.35"/><text class="cls-1" transform="translate(221.34 93.9) rotate(-6.59)"><tspan x="0" y="0"> </tspan></text><text class="cls-1" transform="translate(236.17 92.18) rotate(-5.75)"><tspan x="0" y="0"> </tspan></text><text class="cls-1" transform="translate(250.63 90.07) rotate(-3.27)"><tspan x="0" y="0">M</tspan></text><text class="cls-1" transform="translate(323.94 86.47) rotate(-.55)"><tspan x="0" y="0">j</tspan></text><text class="cls-1" transform="translate(351.2 86.3) rotate(.75)"><tspan x="0" y="0"> </tspan></text><text class="cls-1" transform="translate(365.95 86.17) rotate(2.65)"><tspan x="0" y="0">h</tspan></text><text class="cls-1" transform="translate(417.07 88.48) rotate(5.54)"><tspan x="0" y="0">u</tspan></text><text class="cls-1" transform="translate(467.44 93.35) rotate(8.3)"><tspan x="0" y="0">b</tspan></text><text class="cls-1" transform="translate(515.53 100.33) rotate(11.03)"><tspan x="0" y="0">b</tspan></text><text class="cls-1" transform="translate(565.36 110.13) rotate(13.7)"><tspan x="0" y="0">e</tspan></text><text class="cls-1" transform="translate(606.95 120.14) rotate(16.38)"><tspan x="0" y="0">n</tspan></text></g></svg>