<?xml version="1.0" encoding="utf-8"?>
<svg version="1.1" xmlns="http://www.w3.org/2000/svg" xmlns:xlink="http://www.w3.org/1999/xlink" x="0px" y="0px"
	 viewBox="0 0 1200 1200" style="enable-background:new 0 0 1200 1200;" xml:space="preserve">
<path d="M978,854.1c-2.5,11-10.6,6.5-16.5,6.8c-2.1,0.1-4.3-2.7-6.2-4.1c-2,5.2-5.6,5.9-24.3,3.5c0-6.1,0-12.3,0-18.4
	c-2.3,19.1-2.3,19.1-22.2,19.2c-3.3,0-6.7,0.4-10-0.1c-3.8-0.6-10.9-2.2-10.8-2.9c0.5-6,1.9-12,3.8-17.8c0.7-2.1,3.4-3.5,4.6-5.7
	c-10.7,2.3-12.5,5.8-13.9,26c-8.4,0-16.8,0-25.9,0c-0.3-10.4,3.2-22.5-9.8-28.3c-1.5-0.7-4,1-4.9,1.3c5,5.8,9.4,10.8,13.5,15.5
	c-3.8,6.8-5.3,14.2-15,12.3c-6.4-1.3-13.2-1.1-19.5-2.4c-5.7,1-11.4,2-18.5,3.2c1.9-10.2-2.2-12.9-10.8-11c-0.2,3.1-0.3,6.1-0.5,9.5
	c-13.9,0-27.5,0-40.1,0c0-10,0.7-20-0.2-29.8c-1.1-12.4-6.6-19.2-13.5-19.2c-6.9,0-12.2,6.6-13.3,19.3c-0.9,9.6-0.2,19.4-0.2,29.8
	c-3,0.2-5.9,0.3-10.2,0.5c-0.3-6.1-0.3-11.7-0.9-17.3c-0.9-9.1-1.2-18.4-3.8-27c-1.3-4.2-7.4-9.3-11.4-9.4c-3.9-0.1-10.7,5.2-11.5,9
	c-2.4,11.8-2.7,24-3.5,36c-0.2,2.6,0.8,5.2,1.3,8.3c-10.6,0-20.6,0-30.4,0c4.2-13.2,8.4-26.6,13-41.1c-5.4,0-8.3,0-10.8,0
	c-2.4,8.3-4.2,16.3-7.1,23.9c-3.2,8.2-9.4,13.6-18.8,13.7c-9.7,0.1-16.4-5.1-19.8-13.7c-2.4-6.2-3.9-12.9-4.7-19.5
	c-0.8-6.2-3.4-7.7-11.5-5.4c3.1,13.8,6.3,27.5,9.5,41.5c-12.1,0-25.8,0-39.6,0c5.1-13.6,10.4-27.6,15.6-41.5
	c-7.6-3.7-9.6-0.9-11.5,4.9c-3,8.9-6.1,18.2-11.4,25.7c-11.3,15.8-31.3,14.2-40.3-3c-4.3-8.2-6.6-17.5-9.7-26
	c-5.2,9.5-5.2,9.5,5.7,40.1c-8.8,0-17.4,0-26.3,0c2.9-9.5,5.8-19.1,8.7-28.9c-5.5-2.5-8.6-1.8-10.4,3.6c-1.5,4.6-3.4,9.2-5.6,13.5
	c-4.4,8.5-10.9,13.6-21.3,12.5c-10-1.1-16.2-6.5-20-15.3c-1.7-3.9-2.4-8.2-3.9-13.3c-4.9,0.3-9.9,0.7-16.9,1.2
	c3.1,9.3,5.8,17.8,8.7,26.7c-6.3,0-12.5,0-19.6,0c1.3-6.8,3-13.5,3.8-20.3c0.2-2-1.7-4.3-2.7-6.4c-1.5,1.8-3.5,3.3-4.3,5.4
	c-1,2.5-0.9,5.4-1.4,8.1c-2.3,14.2-3.8,15.2-21.2,12.5c2.6-6.3,4.8-12.2,7.6-17.8c2.9-5.8,6.5-11.3,11.2-19.1c4.1,0,10.7,0,17.3,0
	c7,0,13.2-2.4,15.2-9.4c2.7-9.2,4-19-2.4-27.2c-4.7-5.9-17.6-3-20.4,5.5c-2.8,8.2-2.7,17.4-4.1,27.4c-0.9,0-4.3,0-9.9,0
	c2.9-10,5.4-19.2,8.1-28.3c2.7-9.2,5.7-18.3,8.2-26.4c5.2,0,13.2,2.4,16.5-0.5c6-5.3,9-13.6,2.5-22.1c-1.4-1.8-0.2-5.6-0.2-8.9
	c-2.8-0.8-6-1.6-11-3c3.9-8.2,6.7-16.4,11.5-23c2.4-3.3,8.8-5.3,13.4-5.1c48.6,1.7,96.8,6.3,144.2,18.5c29,7.4,58.1,14,87.2,21
	c0.8,0.2,1.6-0.1,2.9-1.5c-9.2-6.4-20.4-7.4-30.8-10.4c-11.4-3.3-23-6.1-34.6-8.9c-11.3-2.8-22.5-5.4-33.9-8
	c-11.3-2.6-22.6-5.3-34-7.2c-11.7-2-23.6-3-35.4-4.6c-11.2-1.5-22.5-3.2-33.3-6.8c69.9-3.3,135.2,19.3,201.4,36.5
	c0.4-0.9,0.9-1.8,1.3-2.7c-2.7-1.4-5.1-3.4-8-4.2c-36.6-9.4-73.3-19-110-27.8c-30.7-7.4-61.7-12.4-93.5-10.6
	c-8.7,0.5-17.4,1.8-27.4,2.8c5.8-9.3,11.1-17.8,18-29c71.8,18,146.1,36.6,220.5,55.2c0.2-0.7,0.4-1.4,0.6-2
	c-3.6-1.1-7.1-2.3-10.7-3.3c-68.8-19.3-137.6-38.5-206.3-57.9c-3.4-1-9.1-5.3-8.8-6.4c2-6.1,7.3-6.2,12.8-4.6
	c11.9,3.5,23.9,7,35.8,10.5c4-19.5,1.9-26-8.7-27.6c-0.2,4-0.1,7.9-0.7,11.8c-0.2,1.2-2.1,2.2-3.2,3.3c-0.8-1.1-2.5-2.3-2.4-3.2
	c3.5-17.1-9.9-18.5-20.7-22.5c-9.5-3.6-19-7.5-28.4-11.2c0.4-1.2,0.8-2.3,1.2-3.5c35.9,11,71.8,21.8,107.6,33
	c35.7,11.1,71.3,22.6,106.9,34c0.5-1,1.1-2,1.6-3c-2.8-1.5-5.5-3.5-8.6-4.5c-53.5-18-107.1-35.9-160.6-54
	c-11.4-3.8-22.4-8.5-33.6-12.8c0.3-0.8,0.5-1.5,0.8-2.3c10.1,2.8,20.2,5.7,32.7,9.2c-3.6-7.3-6.2-12.8-9.5-19.6
	c8.2,3.1,9.6,9.6,12.4,15.3c1.8,3.6,5.3,6.3,8.1,9.4c1-0.7,1.9-1.4,2.9-2.1c-1.6-3.3-3.2-6.7-4.8-10c0.6-0.5,1.1-1,1.7-1.6
	c2.3,2.9,5.7,5.5,6.8,8.8c1.9,5.7,5.8,7.8,11,9.5c23.2,7.5,46.3,15.4,72.2,24c-3.5-7.3-6-12.7-8.5-18c0.8-0.5,1.6-1,2.4-1.5
	c2.9,4.9,5.7,10,8.9,14.8c2.4,3.5,5.3,6.7,8,10c1-0.7,2.1-1.3,3.1-2c-1.5-3.5-3.1-7.1-4.6-10.6c0.6-0.5,1.1-0.9,1.7-1.4
	c2.4,3.1,4.5,6.3,7.1,9.1c3.1,3.3,6.1,7.4,10.1,9c12.7,5,25.7,9,38.9,13.5c2.4-13.4-0.5-24-11.5-31.3c-9.6-6.4-18.9-13.7-29.4-18.3
	c-76.9-33.8-154-67-231.1-100.4c-1.6-0.7-3.3-1.2-7-2.5c13,17.5,22,34.6,25.5,54c7.8,42.5,1.3,81.2-32.2,111.6
	c-40.4,36.6-101.4,34-137.6-5.6c-15.9-17.4-23-38.8-24.8-61.8c-1.7-21.1-0.5-42.1,6.5-62.4c12.9-37.7,47.2-65,86.8-67
	c10.7-0.5,21.6,3.2,32.4,5.1c2.3,0.4,4.6,1.1,8,1.9c0.4-4.8,0.8-8.9,1-13.1c0.6-12.5,0.9-25,1.8-37.5c1-13.5,3.4-16.4,16.6-18.7
	c18.3-3.2,36.5-3,54.4,2.6c14,4.4,16.4,7.6,17.2,21.9c1.4,25.6,2.7,51.2,4.1,76.9c0.6,10.7,7.8,14,17.4,8.8c3-1.6,7.9-1.4,11.3-0.2
	c9.4,3.5,18.6,7.6,27.6,12.2c3.3,1.7,7.6,5.1,7.9,8.1c0.9,8.7,7.1,10.7,13.3,13.2c10,4.1,19.2,10.2,31,9.9
	c4.8-0.1,10.7,3.5,14.3,7.2c8.3,8.4,16.8,12.8,29.3,12.5c8.5-0.2,17.9,2.9,22.7,12.7c1.2,2.4,6.5,4.1,9.7,3.9
	c10.6-0.7,21.2-3.4,31.8-3.5c9.9-0.1,20.6,0,29.6,3.6c32.5,13.1,64.4,27.7,96.6,41.9c1.5,0.7,2.8,2,4.2,3c-0.2,1-0.3,2-0.5,3
	c-3.9-0.3-8.1,0.4-11.6-1c-23.5-9.6-46.7-19.6-70.1-29.5c-2.8-1.2-5.6-2.2-8.3-3.3c0,50.9-0.1,101.5,0.1,152c0,6-2.2,8.4-8.1,8
	c-2.4-0.1-4.7,0.3-6.3,0.4c-2,6.8-2.1,15.3-6.2,18.4c-4,3.1-12.2,0.7-18.5,0.7c-0.5,0.8-0.9,1.6-1.4,2.5c2.5,1.8,5,5,7.6,5.2
	c7.1,0.5,15.2,4.1,20.9-4.2c0.8-1.1,4-0.8,6.1-0.6c23.1,2.3,46.2,4.5,69.3,7.4c8.1,1,16,4.3,24,6.2c2.8,0.7,5.8,0.4,9.2,0.5
	c-0.8-1.4-1-2.3-1.3-2.4c-26.3-4.8-52.7-9.5-79.1-14.2c-6.6-1.2-13.3-2.4-19.9-2.9c-6-0.5-8.3-2.9-6-10.2
	c27.1,3.9,54.5,7.8,82.9,11.8c0.2-3.8,0.4-7,0.4-10.2c0-33.3,0.1-66.6,0-99.9c0-4.9,1.1-7.3,6.2-10.1c4.4-2.4,6-10.2,9.9-17.6
	c11.2-0.5,24.4,3.4,37.4,8.6c22.9,9.2,40.3,25,54.5,44.7c4.2,5.9,8.3,8,16,6.1c20.8-5.3,41.5-4.8,62.2,2.1
	c19.4,6.4,40.1,9.6,58.6,18c16.7,7.6,34.1,11.8,51.1,17.9c28.1,10.1,55.5,21.9,83.2,33.1c2.9,1.2,5.2,3.5,7,7.4
	c-4.2-0.6-8.5-1.3-14.9-2.3c0,17.1-0.4,33.5,0.4,49.9c0.1,2.8,4.9,5.4,7.5,8c0.9-0.4,1.7-0.8,2.6-1.3c0.8-5.6,1.5-11.2,2.3-16.8
	c1,0.1,2,0.1,3,0.2c0,8.3,0,16.5,0,24.8c-5.3-0.2-4.3,13.7-13.4,5.8c-0.9-0.8-4.7,2.6-7.2,2.6c-21.6,0.2-43.1,0.2-64.7,0.2
	c-26.7,0-53.3,0-80,0.1C981.2,861.3,976.7,861.7,978,854.1z M215.4,588.4c0.6,5.7,1.1,13.9,2.4,22c6.1,38.1,30.7,63.1,68.7,70
	c33.1,6,67.7-9.4,83.6-40c25.7-49.4,20.6-90.1-8.3-129c-26.4-35.4-78.1-40.2-111.1-11C225,523.1,216.5,552.9,215.4,588.4z
	 M907.4,811.8c-0.1,0.5-0.3,1.1-0.4,1.6c-3.3,0-6.7,0.3-10,0c-31.9-3.3-63.8-6.7-95.7-9.8c-2.6-0.3-5.4,1.6-8.1,2.5
	c2.5,1.2,4.8,3.2,7.4,3.4c39.5,3.7,79.1,7.3,118.6,10.8c3.6,0.3,7.2,0,10.8,0c0.1-0.8,0.2-1.7,0.2-2.5c-2.6-1.2-5.1-2.4-8-3.8
	c-0.3-5.8-0.6-11.9-1-18c-40-6.5-79.9-9.7-118.7-19.8c3.4-2.3,6.9-3.5,10.2-3.3c7.6,0.6,15.1,1.8,22.7,3
	c28.3,4.3,56.6,8.7,85.8,13.3c0-9,0.1-17.1,0-25.3c-0.2-22.7-0.2-23-22-28.7c-10.8-2.8-19.4-7.3-25.5-17.3
	c-12.5-20.5-30-34.8-54-40.7c-9-2.2-17.5-6.2-26.3-9.4c-3.7,7.9-1.2,11,5.4,13.1c15.4,4.9,30.7,10.2,45.9,15.6
	c3.1,1.1,5.9,3.2,8.9,4.8c-0.3,0.9-0.7,1.8-1,2.7c-20.6-5.3-41.3-10.7-62.7-16.2c-0.6,4.1-1.5,7.1-1.4,10
	c0.7,29.9,1.7,59.8,2.3,89.8c0.1,6.4,1.9,8.8,8.7,9.7C835.6,801.7,871.5,806.9,907.4,811.8z M946.9,796.3c26.2,4.1,50.9,8.1,75.7,12
	c-0.1,1.1-0.3,2.1-0.4,3.2c-24.5-2.8-49.1-5.6-74.1-8.5c0,4.8,0,9.2,0,14.2c26.3,2.9,52.2,5.7,78,8.5c0.1,1.4,0.1,2.8,0.2,4.2
	c-3,0.4-6,1.4-8.9,1.2c-19.8-1.3-39.6-3-59.4-4.3c-2.4-0.2-4.9,1.2-7.4,1.9c0.2,1,0.3,2.1,0.5,3.1c3.2,0.5,6.4,1.2,9.7,1.4
	c18.9,1.4,37.8,2.4,56.6,4.3c8.2,0.8,10.9-2.1,10.8-9.9c-0.4-21.1-0.6-42.1-0.6-63.2c0-6-2.4-8.5-8-10.1
	c-19.7-5.5-39.2-11.5-58.9-17.1c-4.5-1.3-9.2-1.6-13.7-2.4C946.9,755.8,946.9,775.6,946.9,796.3z M443,820.4c12.3,0,25,0.2,37.7-0.1
	c6.9-0.2,11.1-4.7,13.1-11c7-20.8,8.7-41.6,0.6-62.5c-0.8-2.1-2.2-5.4-3.9-5.7c-14.7-3.2-29.4-5.8-42.5-8.3
	C446.4,762.4,444.8,790.2,443,820.4z M412.8,505.8c1.3,0,2.5-0.1,3.8-0.1c-1.5-24.4-2.7-48.9-4.7-73.3c-0.2-2.5-5-6.2-8.1-6.7
	c-12.3-2-24.8-3-37.2-4.4c-8.4-0.9-12.7,3.1-13.2,11.3c-0.8,14.3-1.5,28.6-1.8,42.9c-0.1,2.2,1.5,5.7,3.3,6.5
	c14.4,6.3,29.1,12.1,44.7,18.5c0-12.2-0.1-23.1,0-34c0.2-10.8-0.9-21.9,4.6-32.1C412.5,457.6,410.3,482,412.8,505.8z M1079.5,833
	c-0.2,0.9-0.4,1.8-0.7,2.7c-14.9,2.3-30.3-2.7-45.1,0.7c0,1.1,0,2.1,0,3.2c15.8,0,31.6,0,47.6,0c0-22.6,0-46,0-70
	c-16.4-4.1-32.2-8.1-48.1-12c0,9.5-0.2,18,0.1,26.4c0.3,8.8-2.2,20.3,2.3,25.5c4.5,5.2,16.3,4.2,24.9,5.9c5.2,1,10.4,2.1,15.5,3.2
	c-0.2,0.8-0.4,1.6-0.6,2.4c-13.5-1.6-26.9-3.1-40.5-4.7c-2.5,8.5-0.3,11.9,8.2,11.9c9.1,0,18.3,1.1,27.3,2
	C1073.7,830.6,1076.6,832,1079.5,833z M592.5,672.3c-1.1,0-2.2,0.1-3.4,0.1c-0.6-2.9-2-5.8-1.7-8.5c1.3-9.9-3.4-13.9-12.5-16.1
	c-12.1-2.9-23.9-7.3-35.8-11.1c-9.8-3.1-19.6-6.2-29.5-9.3c-3.7,24.3-3.7,24.3,17.9,30.5c1.2,0.3,2.3,0.8,3.5,1.1
	c23.9,6.9,47.8,13.8,71.8,20.8c3.3-19.7,1.9-23.3-8.6-24.6C593.6,660.9,593,666.6,592.5,672.3z M1087.3,818.3
	c9.9,1.8,19.1,3.5,28.3,5.2c-0.1,0.8-0.3,1.7-0.4,2.5c-9.2-0.9-18.4-1.8-27.9-2.7c0,3.2,0,5.5,0,7.9c10.5,1.1,20.6,2.2,30.7,3.3
	c-0.1,1.2-0.2,2.4-0.3,3.5c-10.1,0-20.2,0-30.3,0c0,0.9,0,1.9,0,2.8c11.1,0,22.3,0,36.2,0c0-17.7,0.1-35.6-0.2-53.6
	c0-1.9-1.8-4.8-3.5-5.4c-10.4-4.1-21-7.6-32.5-11.7C1087.3,787.1,1087.3,802.2,1087.3,818.3z M579.1,772.1
	c-3.1-10.3-5-20.6-9.3-29.8c-12.2-25.8-39-29-58.2-8c-6.2,6.8-9,13.4-3.9,19.2c5.8-4.7,11.5-9.7,17.7-14.1
	c12.4-8.8,25.1-6.4,32.8,6.7c3.5,6,6.1,12.7,7.8,19.4C567.5,772,570.1,774.7,579.1,772.1z M609.5,658.8c0,7.3-0.4,12.8,0.2,18.1
	c0.2,2.1,2.3,5.2,4.2,5.8c13,4.1,26.1,7.7,40.5,11.9c0-6.6,0.4-12.1-0.2-17.5c-0.2-2.1-2.2-5.3-4-5.9
	C637.2,667,624.1,663.2,609.5,658.8z M605.1,776.6c1.3-4.1,2.1-7.7,3.4-11c5.6-14,22.5-19.9,33.8-10.2c5.8,5.1,9,13.9,11.7,21.7
	c1.8,5.1,3.3,7.1,8.5,5.7c-2.2-29.9-17.2-41.7-35-43.7c-15.3-1.7-28.7,14.9-30.9,36.5C599.3,776,602.1,776.3,605.1,776.6z
	 M582.5,783.9c-24.5-2.3-48.2-4.6-72.2-6.9c0,4.9,0,8.4,0,12.5c20,1.3,39.4,2.2,58.7,4C576.3,794.2,580.5,792.1,582.5,783.9z
	 M510.1,806.5c23.4,0,46.9,0,70.5,0c0.4-0.6,0.9-1.3,1.3-1.9c-3.1-1.9-6.1-5.2-9.2-5.4c-18.9-1-37.9-1.2-56.8-2
	C509.4,796.9,507.8,799.5,510.1,806.5z M665.8,643.2c0,8.6,0,16.9,0,28.3c6.5-3.2,13.8-4.5,14.8-7.7c2-6.6,0.6-14.2,0.6-21.8
	C675.3,642.4,670.5,642.8,665.8,643.2z M590.3,784.7c11.1,17.5,27.3,9.1,40.1,12c1.9,0.4,4.8-3.1,7.2-4.8c-0.4-0.9-0.7-1.7-1.1-2.6
	C621.9,787.8,607.3,786.4,590.3,784.7z M592.9,808.1c14.5,0,28.6,0,42.8,0c0.3-0.9,0.5-1.8,0.8-2.6c-8.3-5.7-18.9-3.5-28.3-4.3
	C603,800.8,594.8,796.7,592.9,808.1z M589.1,789.2c-1,0-2,0-3,0c-4.7,5.1-4.8,10.1,3,15C589.1,799.2,589.1,794.2,589.1,789.2z
	 M645.5,807.2c0-5,0-9.9,0-17.2C637.7,798.6,637.7,800.5,645.5,807.2z M764.6,816.1c2.3,4.9,3.8,9.3,4.4,9.1
	c3.5-0.6,6.9-2.4,10.3-3.8c-0.2-1-0.4-2-0.6-3C775.1,817.9,771.5,817.3,764.6,816.1z M666.6,809c-0.3-1.5-0.5-3-0.8-4.5
	c-5.2,1.5-11.7-3.5-17.1,5.8C655.8,809.8,661.2,809.4,666.6,809z M159.6,860.1c9,3.2,13.1,0.3,16.2-8c10.2-26.8,21.5-53.2,31.9-79.9
	c2.6-6.7,6.2-9.8,14.5-8.7C209.7,796,197.4,828,185,860.2c10.1,2.7,15.4,0.6,18.9-9.6c9.6-27.7,20.8-54.8,30.9-82.3
	c2.6-7.2,6.4-9.6,14.3-7.1c-12.7,33.2-25.3,66.1-38,99.2c16,1.6,15.9,1.6,21-11.5c10.5-27.4,21.3-54.6,31.4-82.1
	c3.1-8.5,7.8-9.4,16-6.6c-12.3,33.6-24.5,66.8-37,100.6c5.9,0,10.1,0,14.9,0c10.5-29.7,21-59.3,31.4-88.8c4.3-12.2,5.4-12.6,18-6.9
	c-10.9,31.6-21.8,63.2-32.8,95.1c9.1,2.2,14.4,1.6,17.5-8.6c7.2-23.9,16.1-47.4,24.3-71c1.7-4.8,3.4-9.6,5.2-14.6
	c4.4,1,7.8,1.8,11.8,2.7c-10.7,31.2-21,61.4-31.3,91.5c9.8,3.1,13.7-0.4,16.4-9.2c7.5-24.8,16-49.4,24.1-74c2.2-6.6,2.3-6.5,9.8-2.9
	c-9.2,28.6-18.4,57.3-27.6,86.1c11.2,1.8,11.2,1.8,14.2-7.7c4.6-14.6,9-29.2,13.6-43.7c3.5-11.3,7.2-22.5,10.9-34.2
	c3.7,1,6.5,1.8,9.7,2.7c-8.6,28.3-16.9,55.6-25.4,83.4c3.7,0,6.4,0,8.8,0c8.1-25.5,15.9-50.6,24-75.5c0.7-2.2,3.5-3.7,5.3-5.5
	c0.5,2.3,1.9,4.9,1.4,6.9c-6.6,24.9-13.5,49.7-20.3,74.5c7.2,2,10.7-1.5,12.8-9.5c6-23,12.9-45.8,19.4-68.7
	c3.2-11.3,2.8-12.3-8.6-14.8c-16.1-3.6-32.2-6.8-49.3-10.4c10-26.9,19.8-53.3,30.6-82.4c-43.2,27.6-85.1,37-129.2,7.1
	c-11.1,21-21.7,41.1-33.1,62.8c5.2-0.4,8.5-1.1,11.7-0.8c13.9,1.5,22.7-3.2,24.5-18.1c0.2-2.1,3-5.5,4.6-5.5
	c14.5-0.4,29-0.3,44.1-0.3c-1.3,10.4-2.4,19.4-3.6,28.8c-8.7-0.6-16.7-2.3-24.4-1.5c-28.8,3.1-57.5,7.1-86.2,10.7
	c-12.7,1.6-21.5,5.8-26.7,19.7c-8.8,23.3-21.1,45.4-31.6,68.1c-2,4.4-2.6,9.5-3.8,14.2c1.1,0.6,2.3,1.2,3.4,1.8
	c2.1-2.8,4.7-5.3,6.2-8.3c12.4-25.6,24.4-51.3,36.9-76.8c1.4-2.8,4.8-4.7,7.3-7c0.7,0.7,1.4,1.4,2.1,2.2
	c-12.1,29.2-24.2,58.5-36.5,88.1c7.6,1.9,11.7,0.8,14.7-6.7c10.3-26.1,21.7-51.8,32.1-77.9c2.7-6.8,6.4-9.8,14.8-8.9
	C185.6,798.3,172.6,829.1,159.6,860.1z M342.5,374.2c2.2-3.3,4.3-6.6,6.3-10.1c12.6-22.1,30.9-37,55.5-43.2
	c37-9.3,73.1-5.6,104.3,16.7c21.4,15.3,41.4,33.5,58.9,53.2c36.9,41.2,81,71.2,131.7,92.1c13.4,5.6,27.7,9.2,41.5,13.7
	c0.3-0.8,0.6-1.7,0.9-2.5c-2.6-1.4-5.2-2.9-7.9-4.1c-67.6-31.7-128.9-71.3-176.2-131c-37.5-47.3-88.2-64.8-147.6-55.2
	c-33.1,5.3-59.2,20.9-69.8,55.2c-1.5,4.9-1.1,10.4-1.8,17.3C341.5,374.7,342.2,374.6,342.5,374.2z M431.3,633.1
	c-26,18.9-49.6,39.5-57.3,72.9c-1.8,8-5.3,15.6-7.9,23.4c-2,6.2-3.7,12.6-5.7,19.6c15.5,4.5,29.9,8.6,44.8,12.9
	c4.3-14.3,7.8-27.6,12.3-40.5c10.5-29.9,14.1-62.4,32-89.6C441.9,628.1,438.3,628,431.3,633.1z M789.9,537.2c-4.9-2-9.7-4.3-14.8-6
	c-39.1-13-78.4-25.4-117.3-38.9c-57.4-19.9-115.8-38-161.1-81.8c-2.2-2.1-5-3.4-7.7-5c-11.1-6.6-22.9-10.1-35.9-8
	c-5.5,0.9-11.3,2.2-13.3,9.5c2.3,0.6,4,1.6,5.6,1.5c22.6-1,40.3,9.4,57,23.3c20.7,17.3,43.7,31.3,68.7,41.6
	c63.3,26.2,129,45,195.4,61.6c7.5,1.9,15.1,3,22.7,4.5C789.4,538.8,789.6,538,789.9,537.2z M227.3,666.1c-9.3-8.6-22.7-7.6-28.2,3.6
	c-9.8,19.9-18.6,40.3-27.6,60.7c-2.7,6.2-4.4,12.9-7,20.7c12.6-2.6,23.3-4.6,33.9-7.2c2.2-0.5,4.5-3,5.6-5.2
	c10.6-20.9,21-41.9,33-65.8C234.3,671,230.4,668.9,227.3,666.1z M377.1,671c22.6-18.8,49.3-33.7,49.7-68.6
	c0.3-23.7-1.1-46.3-18-65.3C418.9,586.9,412.7,632.2,377.1,671z M752.5,703.4c-15.2-5.1-29-9.6-42.6-14.5c-1.8-0.6-3.7-3.6-3.8-5.6
	c-0.4-11.4-0.2-22.9-0.2-36.9c12,4.7,22.1,8.3,32,12.6c17,7.4,17,7.6,16.1,26.5C753.8,690.8,753.2,696.1,752.5,703.4z M712.9,655.7
	c0,9.3-0.3,15.7,0.2,22c0.1,2,1.7,5.1,3.4,5.7c10,3.9,20.2,7.3,31.6,11.2c0-7.8,0.3-13.5-0.1-19.3c-0.2-2.4-1.4-6-3.1-6.8
	C734.8,664.1,724.6,660.3,712.9,655.7z M704.2,820.4c-0.6-2.2-3.3-3.9-5-5.8c-1.8,1.8-4.9,3.6-5,5.5c-0.7,12.2-0.9,24.5-0.7,36.7
	c0,1.5,3.6,3.9,5.6,4c2,0,5.2-2,5.8-3.8c1.6-5.5,2.2-11.2,3.3-17.7C706.9,833.4,706,826.8,704.2,820.4z M745.4,856.7
	c0.7-10.8,0.1-21.7-0.7-32.5c-0.2-2.1-3.2-3.9-4.9-5.9c-1.9,2.1-4.7,3.9-5.5,6.3c-3.9,11.9-3.8,23.9,1,38.3
	C739.3,860.7,745.3,858.9,745.4,856.7z M251,733.1c10.3,0,20.5,0.3,30.7-0.2c2.3-0.1,4.4-3.1,6.6-4.8c-0.5-0.7-0.9-1.5-1.4-2.2
	c-10.8,0-21.7-0.2-32.5,0.2c-1.8,0.1-3.6,3.2-5.3,4.9C249.8,731.7,250.4,732.4,251,733.1z M409.5,800.4c-1.2,7.3-0.8,14.1,8.5,20.4
	c-4.3-12.8-9.1-23.6,3.8-31.7C413.7,788.7,410.6,793.5,409.5,800.4z M425.2,741.9c-5.3-3.5-8.7-1.2-11.3,2.9
	c-4,6.3-2.2,13.2,5.7,18.3C413.6,750.9,414.1,749.1,425.2,741.9z M254.7,640.6c3,4,5.4,8.7,9.2,11.9c17.6,14.8,45.9,16.7,67.2,4.5
	c32.3-18.7,41.1-48.9,39.7-83.6c-1-25.6-14.8-43.3-36.6-55.2c-3.4-1.9-7.5-2.6-11.2-3.8c-0.9,0.6-1.9,1.3-2.8,1.9
	c26.5,25.5,29.3,55.2,15.7,86.3c-15.2,35-46.3,38.4-79.7,35.4C255.7,638.9,255.2,639.7,254.7,640.6z M291,615.9
	c-20.7,0.1-37.1-16.1-37.4-37c-0.2-21.3,16.3-38.6,36.9-38.6c20.1,0,37,17.2,37.1,37.7C327.7,598.8,311.3,615.8,291,615.9z
	 M316.7,574.3c0-17.1-9.8-27.2-26.3-27.1c-17,0.1-30.6,13.9-30.5,31.1c0.1,15.9,11,28.4,24.8,28.4
	C301.7,606.6,316.7,591.5,316.7,574.3z M254.5,520.8c-1.7,2.7-5,5.6-4.7,8.1c0.3,2.7,3.8,5.1,6,7.6c2.2-2.4,5.8-4.6,6.2-7.3
	c0.4-2.5-2.6-5.5-4.2-8.4C256.7,520.9,255.6,520.8,254.5,520.8z M243.7,618.9c1.6-2.8,4.8-5.8,4.4-8.3c-0.4-2.7-4-4.9-6.2-7.3
	c-2.1,2.5-5.7,4.8-6,7.5c-0.3,2.5,2.8,5.4,4.4,8.2C241.5,618.9,242.6,618.9,243.7,618.9z M238.8,558.3c-2.5,0.4-6.2,4.4-6.2,6.8
	c0,2.4,3.7,6.4,6.2,6.7c2.2,0.3,5-3.4,9.6-6.8C243.8,561.6,241,558,238.8,558.3z M290.1,504.5c-2.3,0.1-6.2,4.1-6.3,6.6
	c-0.1,2.4,3.3,6.6,5.7,7c2.3,0.4,5.2-3,9.9-6.1C295.1,508.3,292.5,504.4,290.1,504.5z M963.2,770.5c0-7.9,0-16,0-24.5
	c-3.1-0.7-6-1.3-9.5-2.1C951.8,771,952,772.3,963.2,770.5z M977.7,773c3.5-18.3,2.4-22.9-6.5-23.8
	C967.3,769.7,968.4,773.5,977.7,773z M992.3,774.6c0-6.7,0-13.6,0-21.1c-2.4-0.4-4.9-0.8-7.4-1.2
	C981.5,772.7,982.4,775.8,992.3,774.6z M998.2,754.7c-3.6,16.1-2.3,21.6,7.2,23.6C1001.6,770,1010.2,760.1,998.2,754.7z
	 M1017.8,778.7c0.1,1.2,1.1,2.7,2.2,3.5c0.6,0.4,2.5,0.1,3.1-0.6c3-2.9,0-16.9-5.4-20.1C1017.7,768.1,1017.6,773.4,1017.8,778.7z
	 M1012.1,780.2c0.5-7.3,4.4-15-2.7-21.3C1009.2,766.2,1004.2,774.2,1012.1,780.2z M486.2,765c-2.6,9.3-5.1,18.6-7.9,27.9
	c-3.5,11.5-15.7,9-24.3,13.2c10.5,8.6,27.3,6.9,32-3c5.9-12.2,4.2-25.1,2.5-37.8C487.8,765.2,487,765.1,486.2,765z M1044.2,785.9
	c-1.9-7,2.7-14.7-5.8-21.8C1036,781.4,1036.7,783.9,1044.2,785.9z M1051.8,787.3c-0.1-6.4,2.8-13.2-2.2-18.9
	c-1.1,0.1-2.2,0.3-3.2,0.4c0.5,6.3,1.1,12.6,1.6,19C1049.2,787.6,1050.5,787.5,1051.8,787.3z M1113.5,787.7c2.2,5.7-4.2,14.7,8,14.6
	c0-4.5,0-8.4,0-13.4C1118.8,788.5,1116.7,788.2,1113.5,787.7z M1094.4,796.6c-0.4-5.8-0.9-11.6-1.3-17.4c-0.9,0.1-1.7,0.2-2.6,0.2
	c0,5.8,0,11.7,0,17.5C1091.8,796.9,1093.1,796.8,1094.4,796.6z M1101.7,797.7c-0.4-5.4-0.9-10.9-1.3-16.3c-1.3,0.1-2.6,0.2-3.8,0.4
	c0.3,5.5,0.7,11,1,16.4C1099,798,1100.4,797.9,1101.7,797.7z M275.4,566.1c4.6-8.6,14.3-11,25.8-10.8c-13.4-5-24.6-2.1-31.7,7.2
	c-6.4,8.5-6.5,20.7-0.9,28.4C270.7,582.9,271.4,573.6,275.4,566.1z"/>
</svg>
